# xmcd
#
# Track frame offsets: 
#        150
#        18557
#        37990
#        53122
#        74927
#        97394
#        122188
#        143756
#        171695
#
# Disc length: 2527 seconds
#
# Revision: 0
# Processed by: cddbd v1.5.2PL0 Copyright (c) Steve Scherf et al.
# Submitted via: ExactAudioCopy v0.95b3
#
DISCID=9009dd09
DTITLE=Rebecca - Ngiyekeleni
DYEAR=1900
DGENRE=Gospel
TTITLE0=Ngiyekeleni
TTITLE1=Indlela Ezimbini
TTITLE2=Inkedama
TTITLE3=Sithethelele
TTITLE4=I´ll bide my time
TTITLE5=Bohloko Ba Afrika
TTITLE6=I´ll be free
TTITLE7=Intando Yakho
TTITLE8=Nikosi Yezizwe
EXTD=
EXTT0=
EXTT1=
EXTT2=
EXTT3=
EXTT4=
EXTT5=
EXTT6=
EXTT7=
EXTT8=
PLAYORDER=
